<svg version="1.1" id="Layer_1" xmlns="http://www.w3.org/2000/svg" xmlns:xlink="http://www.w3.org/1999/xlink" x="0px" y="0px"
	 width="100%" viewBox="0 0 1000 1000" enable-background="new 0 0 1000 1000" xml:space="preserve">
<path fill="#000000" opacity="1.000000" stroke="none" 
	d="
M656.000000,1001.000000 
	C437.333344,1001.000000 219.166672,1001.000000 1.000000,1001.000000 
	C1.000000,667.666687 1.000000,334.333344 1.000000,1.000000 
	C334.333344,1.000000 667.666687,1.000000 1001.000000,1.000000 
	C1001.000000,334.333344 1001.000000,667.666687 1001.000000,1001.000000 
	C886.166687,1001.000000 771.333313,1001.000000 656.000000,1001.000000 
M465.523651,532.017517 
	C468.025085,534.170776 470.412415,536.476013 473.045990,538.453247 
	C494.259003,554.380005 517.831482,565.029480 543.957520,569.878967 
	C547.229248,570.486267 549.760315,569.785767 551.857483,566.621948 
	C557.751038,557.730774 563.750183,548.882385 570.205872,540.396057 
	C591.205322,512.791016 612.437561,485.363007 633.559509,457.850983 
	C646.569580,440.904938 659.602417,423.975769 672.514954,406.955475 
	C686.816284,388.104614 701.157654,369.280060 715.159424,350.207520 
	C723.304810,339.112183 732.133545,328.185608 735.203674,314.326904 
	C737.610779,303.460907 740.006714,292.466492 740.840576,281.410919 
	C741.808838,268.573700 741.066284,255.607483 741.066284,242.018707 
	C738.451172,241.724091 735.220947,240.946060 732.027039,241.073868 
	C719.802551,241.563034 707.494934,241.629028 695.401001,243.231323 
	C684.910889,244.621170 674.099854,246.542831 664.463928,250.652420 
	C653.264526,255.428818 642.612122,262.053009 632.740051,269.267792 
	C606.073059,288.756714 579.846375,308.854492 553.634033,328.957184 
	C529.235596,347.668732 505.279663,366.960876 480.758545,385.507690 
	C459.282257,401.751465 437.274689,417.292206 415.579315,433.248871 
	C414.535095,434.016876 413.524750,435.910004 413.703278,437.098206 
	C416.058350,452.772644 420.609589,467.822144 427.577515,482.063873 
	C436.826477,500.967773 449.495667,517.337280 465.523651,532.017517 
M506.999603,736.343994 
	C507.333069,726.901001 507.990204,717.456055 507.934784,708.015320 
	C507.806976,686.238647 507.240356,664.464844 507.046631,642.688049 
	C506.971161,634.204956 508.588409,626.000061 512.830688,618.484375 
	C515.801758,613.220764 518.760376,607.950195 521.864624,602.433899 
	C451.184021,580.803284 404.461578,534.891968 382.122650,464.268951 
	C382.077698,464.262482 381.867584,464.162323 381.761017,464.228638 
	C381.201813,464.576447 380.658386,464.952362 380.128174,465.343781 
	C366.459015,475.435394 351.076569,479.818726 334.183655,478.982208 
	C322.789673,478.417969 311.410522,477.351837 300.012695,477.130707 
	C290.578552,476.947693 281.121033,477.557495 271.684326,478.026062 
	C260.958313,478.558655 250.221207,479.075714 239.530075,480.050629 
	C225.312393,481.347137 211.821320,485.677887 199.169006,492.072235 
	C179.103745,502.213013 163.300873,517.156555 152.147369,536.758850 
	C149.535034,541.350098 147.690247,546.378113 145.492325,551.205139 
	C147.299973,551.572571 147.989075,551.260742 148.627655,550.867065 
	C157.718582,545.261658 166.514801,539.096680 175.948257,534.145325 
	C195.698898,523.778748 216.312851,515.448425 238.886063,514.038574 
	C249.710678,513.362488 260.828491,512.877869 271.454315,514.566650 
	C287.784454,517.161926 303.658722,522.056213 320.363953,523.304138 
	C333.206451,524.263550 345.729156,523.792969 358.240234,521.324585 
	C363.952362,520.197632 369.546967,518.474854 376.119171,516.784668 
	C373.962128,519.587585 372.507996,521.763672 370.773285,523.686462 
	C355.291901,540.846313 336.122803,553.093323 316.020447,563.890747 
	C300.499054,572.227661 284.504333,579.679321 268.787903,587.658081 
	C247.186478,598.624451 229.723480,614.371643 215.961304,634.222412 
	C202.370514,653.826050 193.829468,675.593811 189.185806,698.896179 
	C187.936127,705.167297 187.554581,711.611450 186.774490,717.976135 
	C187.198578,718.069092 187.622681,718.161987 188.046768,718.254944 
	C188.544296,717.483032 189.177521,716.766602 189.519638,715.931091 
	C199.706909,691.049011 216.467896,671.105591 236.697266,653.936707 
	C251.573624,641.310974 268.074493,630.967712 285.933289,623.159607 
	C301.109436,616.524353 316.759216,610.972290 332.201202,604.945496 
	C351.922516,597.248596 371.597778,589.429626 391.400391,581.947815 
	C396.573975,579.993103 402.146057,579.093018 408.557709,577.445862 
	C406.293762,585.571777 404.956512,592.377747 402.514160,598.760925 
	C395.241516,617.768616 387.491241,636.592957 380.008698,655.521057 
	C370.834625,678.728149 363.124023,702.542053 349.656128,723.887817 
	C335.494324,746.333557 318.632568,766.218079 296.477203,781.074097 
	C286.907654,787.490845 276.647278,792.877319 266.504425,798.847351 
	C272.604614,798.204224 278.921478,798.061340 285.009064,796.806152 
	C311.718903,791.299255 336.501556,781.544434 358.296082,764.509155 
	C374.870850,751.553955 387.961273,735.932678 397.722260,717.507263 
	C407.356384,699.321289 416.129578,680.675964 425.901062,662.567017 
	C435.408081,644.948303 446.858551,628.615723 461.665497,614.907776 
	C463.449432,613.256226 465.681458,612.088623 467.933411,610.540222 
	C465.853180,621.317627 462.980835,631.171631 462.231537,641.184509 
	C460.895569,659.036987 462.301147,676.878967 466.701385,694.324768 
	C471.562408,713.597534 474.801971,732.767761 471.208893,752.866821 
	C466.949860,776.691406 458.279907,798.618530 446.104462,819.303345 
	C442.065247,826.165527 437.476379,832.704224 433.107239,839.439453 
	C433.658600,839.652954 433.978546,839.897583 434.264709,839.862976 
	C434.897278,839.786560 435.535309,839.628479 436.132172,839.401367 
	C454.475647,832.423706 469.590424,820.846863 481.584167,805.585205 
	C497.256256,785.643066 504.536011,762.287170 506.999603,736.343994 
M576.498779,285.001190 
	C591.916138,273.544067 607.522461,262.330658 622.699463,250.563400 
	C638.899475,238.002960 656.329041,228.295349 676.724060,224.655731 
	C684.890869,223.198303 693.088379,221.913086 701.271912,220.549500 
	C701.253174,220.366333 701.234436,220.183167 701.215759,220.000000 
	C699.397095,220.000000 697.578430,220.000000 695.759766,220.000000 
	C647.143188,220.000000 598.523499,220.306747 549.911865,219.818146 
	C534.795044,219.666214 526.098511,229.457062 526.032166,243.809525 
	C525.917419,268.616760 525.996277,293.424927 526.010132,318.232697 
	C526.010986,319.759735 526.153259,321.286713 526.265076,323.519623 
	C543.387817,310.430908 559.688354,297.970642 576.498779,285.001190 
M758.027405,311.533875 
	C755.171204,325.230194 749.890320,338.028564 741.768188,349.310028 
	C726.309326,370.781830 710.344727,391.892395 694.422546,413.026703 
	C683.505737,427.517212 672.305603,441.794281 660.797607,456.730652 
	C663.168579,456.839386 664.918518,456.988525 666.668579,456.989563 
	C692.328247,457.004578 717.987976,457.007568 743.647644,456.996338 
	C755.147949,456.991333 763.973450,448.249664 763.983093,436.668335 
	C764.022095,389.681152 764.002075,342.693878 763.987000,295.706665 
	C763.986572,294.223297 763.801575,292.739990 763.702637,291.256653 
	C763.252747,291.247681 762.802795,291.238708 762.352844,291.229736 
	C760.947510,297.718628 759.542175,304.207489 758.027405,311.533875 
z"/>
<path fill="#B82525" opacity="1.000000" stroke="none" 
	d="
M465.270203,531.769165 
	C449.495667,517.337280 436.826477,500.967773 427.577515,482.063873 
	C420.609589,467.822144 416.058350,452.772644 413.703278,437.098206 
	C413.524750,435.910004 414.535095,434.016876 415.579315,433.248871 
	C437.274689,417.292206 459.282257,401.751465 480.758545,385.507690 
	C505.279663,366.960876 529.235596,347.668732 553.634033,328.957184 
	C579.846375,308.854492 606.073059,288.756714 632.740051,269.267792 
	C642.612122,262.053009 653.264526,255.428818 664.463928,250.652420 
	C674.099854,246.542831 684.910889,244.621170 695.401001,243.231323 
	C707.494934,241.629028 719.802551,241.563034 732.027039,241.073868 
	C735.220947,240.946060 738.451172,241.724091 741.066284,242.018707 
	C741.066284,255.607483 741.808838,268.573700 740.840576,281.410919 
	C740.006714,292.466492 737.610779,303.460907 735.203674,314.326904 
	C732.133545,328.185608 723.304810,339.112183 715.159424,350.207520 
	C701.157654,369.280060 686.816284,388.104614 672.514954,406.955475 
	C659.602417,423.975769 646.569580,440.904938 633.559509,457.850983 
	C612.437561,485.363007 591.205322,512.791016 570.205872,540.396057 
	C563.750183,548.882385 557.751038,557.730774 551.857483,566.621948 
	C549.760315,569.785767 547.229248,570.486267 543.957520,569.878967 
	C517.831482,565.029480 494.259003,554.380005 473.045990,538.453247 
	C470.412415,536.476013 468.025085,534.170776 465.270203,531.769165 
z"/>
<path fill="#B82525" opacity="1.000000" stroke="none" 
	d="
M506.998901,736.812256 
	C504.536011,762.287170 497.256256,785.643066 481.584167,805.585205 
	C469.590424,820.846863 454.475647,832.423706 436.132172,839.401367 
	C435.535309,839.628479 434.897278,839.786560 434.264709,839.862976 
	C433.978546,839.897583 433.658600,839.652954 433.107239,839.439453 
	C437.476379,832.704224 442.065247,826.165527 446.104462,819.303345 
	C458.279907,798.618530 466.949860,776.691406 471.208893,752.866821 
	C474.801971,732.767761 471.562408,713.597534 466.701385,694.324768 
	C462.301147,676.878967 460.895569,659.036987 462.231537,641.184509 
	C462.980835,631.171631 465.853180,621.317627 467.933411,610.540222 
	C465.681458,612.088623 463.449432,613.256226 461.665497,614.907776 
	C446.858551,628.615723 435.408081,644.948303 425.901062,662.567017 
	C416.129578,680.675964 407.356384,699.321289 397.722260,717.507263 
	C387.961273,735.932678 374.870850,751.553955 358.296082,764.509155 
	C336.501556,781.544434 311.718903,791.299255 285.009064,796.806152 
	C278.921478,798.061340 272.604614,798.204224 266.504425,798.847351 
	C276.647278,792.877319 286.907654,787.490845 296.477203,781.074097 
	C318.632568,766.218079 335.494324,746.333557 349.656128,723.887817 
	C363.124023,702.542053 370.834625,678.728149 380.008698,655.521057 
	C387.491241,636.592957 395.241516,617.768616 402.514160,598.760925 
	C404.956512,592.377747 406.293762,585.571777 408.557709,577.445862 
	C402.146057,579.093018 396.573975,579.993103 391.400391,581.947815 
	C371.597778,589.429626 351.922516,597.248596 332.201202,604.945496 
	C316.759216,610.972290 301.109436,616.524353 285.933289,623.159607 
	C268.074493,630.967712 251.573624,641.310974 236.697266,653.936707 
	C216.467896,671.105591 199.706909,691.049011 189.519638,715.931091 
	C189.177521,716.766602 188.544296,717.483032 188.046768,718.254944 
	C187.622681,718.161987 187.198578,718.069092 186.774490,717.976135 
	C187.554581,711.611450 187.936127,705.167297 189.185806,698.896179 
	C193.829468,675.593811 202.370514,653.826050 215.961304,634.222412 
	C229.723480,614.371643 247.186478,598.624451 268.787903,587.658081 
	C284.504333,579.679321 300.499054,572.227661 316.020447,563.890747 
	C336.122803,553.093323 355.291901,540.846313 370.773285,523.686462 
	C372.507996,521.763672 373.962128,519.587585 376.119171,516.784668 
	C369.546967,518.474854 363.952362,520.197632 358.240234,521.324585 
	C345.729156,523.792969 333.206451,524.263550 320.363953,523.304138 
	C303.658722,522.056213 287.784454,517.161926 271.454315,514.566650 
	C260.828491,512.877869 249.710678,513.362488 238.886063,514.038574 
	C216.312851,515.448425 195.698898,523.778748 175.948257,534.145325 
	C166.514801,539.096680 157.718582,545.261658 148.627655,550.867065 
	C147.989075,551.260742 147.299973,551.572571 145.492325,551.205139 
	C147.690247,546.378113 149.535034,541.350098 152.147369,536.758850 
	C163.300873,517.156555 179.103745,502.213013 199.169006,492.072235 
	C211.821320,485.677887 225.312393,481.347137 239.530075,480.050629 
	C250.221207,479.075714 260.958313,478.558655 271.684326,478.026062 
	C281.121033,477.557495 290.578552,476.947693 300.012695,477.130707 
	C311.410522,477.351837 322.789673,478.417969 334.183655,478.982208 
	C351.076569,479.818726 366.459015,475.435394 380.128174,465.343781 
	C380.658386,464.952362 381.201813,464.576447 381.761017,464.228638 
	C381.867584,464.162323 382.077698,464.262482 382.122650,464.268951 
	C404.461578,534.891968 451.184021,580.803284 521.864624,602.433899 
	C518.760376,607.950195 515.801758,613.220764 512.830688,618.484375 
	C508.588409,626.000061 506.971161,634.204956 507.046631,642.688049 
	C507.240356,664.464844 507.806976,686.238647 507.934784,708.015320 
	C507.990204,717.456055 507.333069,726.901001 506.998901,736.812256 
z"/>
<path fill="#B82525" opacity="1.000000" stroke="none" 
	d="
M576.243896,285.255798 
	C559.688354,297.970642 543.387817,310.430908 526.265076,323.519623 
	C526.153259,321.286713 526.010986,319.759735 526.010132,318.232697 
	C525.996277,293.424927 525.917419,268.616760 526.032166,243.809525 
	C526.098511,229.457062 534.795044,219.666214 549.911865,219.818146 
	C598.523499,220.306747 647.143188,220.000000 695.759766,220.000000 
	C697.578430,220.000000 699.397095,220.000000 701.215759,220.000000 
	C701.234436,220.183167 701.253174,220.366333 701.271912,220.549500 
	C693.088379,221.913086 684.890869,223.198303 676.724060,224.655731 
	C656.329041,228.295349 638.899475,238.002960 622.699463,250.563400 
	C607.522461,262.330658 591.916138,273.544067 576.243896,285.255798 
z"/>
<path fill="#B82525" opacity="1.000000" stroke="none" 
	d="
M758.082153,311.115112 
	C759.542175,304.207489 760.947510,297.718628 762.352844,291.229736 
	C762.802795,291.238708 763.252747,291.247681 763.702637,291.256653 
	C763.801575,292.739990 763.986572,294.223297 763.987000,295.706665 
	C764.002075,342.693878 764.022095,389.681152 763.983093,436.668335 
	C763.973450,448.249664 755.147949,456.991333 743.647644,456.996338 
	C717.987976,457.007568 692.328247,457.004578 666.668579,456.989563 
	C664.918518,456.988525 663.168579,456.839386 660.797607,456.730652 
	C672.305603,441.794281 683.505737,427.517212 694.422546,413.026703 
	C710.344727,391.892395 726.309326,370.781830 741.768188,349.310028 
	C749.890320,338.028564 755.171204,325.230194 758.082153,311.115112 
z"/>
</svg>